<svg width="24" height="24" viewBox="0 0 24 24" fill="none" xmlns="http://www.w3.org/2000/svg">
<path d="M10.3237 17.5021C9.86261 17.5021 9.469 17.3344 9.14285 16.999C8.81685 16.6637 8.65385 16.2605 8.65385 15.7895V14.2772C7.81831 13.7041 7.16715 12.9662 6.70038 12.0637C6.23346 11.1613 6 10.1957 6 9.16689C6 7.45326 6.582 5.997 7.746 4.79811C8.90985 3.59937 10.3273 3 11.9984 3C13.6693 3 15.0873 3.59747 16.2524 4.79242C17.4175 5.98737 18 7.44253 18 9.1579C18 10.1927 17.7665 11.1589 17.2996 12.0564C16.8328 12.954 16.1817 13.6943 15.3462 14.2772V15.7895C15.3462 16.2605 15.1828 16.6637 14.856 16.999C14.5292 17.3344 14.1364 17.5021 13.6775 17.5021H10.3237ZM10.2337 21C10.0375 21 9.87315 20.9319 9.74054 20.7956C9.60777 20.6593 9.54138 20.4906 9.54138 20.2892C9.54138 20.0878 9.60777 19.9191 9.74054 19.7831C9.87315 19.647 10.0375 19.5789 10.2337 19.5789H13.7663C13.9625 19.5789 14.1268 19.6471 14.2595 19.7833C14.3922 19.9196 14.4586 20.0884 14.4586 20.2897C14.4586 20.4912 14.3922 20.6599 14.2595 20.7958C14.1268 20.9319 13.9625 21 13.7663 21H10.2337Z" fill="#6D7882"/>
</svg>
