<svg width="24" height="24" viewBox="0 0 24 24" fill="none" xmlns="http://www.w3.org/2000/svg">
<path d="M5.70141 20C5.22596 20 4.82353 19.8353 4.49412 19.5059C4.16471 19.1765 4 18.774 4 18.2986V5.70141C4 5.22596 4.16471 4.82353 4.49412 4.49412C4.82353 4.16471 5.22596 4 5.70141 4H18.2986C18.774 4 19.1765 4.16471 19.5059 4.49412C19.8353 4.82353 20 5.22596 20 5.70141V18.2986C20 18.774 19.8353 19.1765 19.5059 19.5059C19.1765 19.8353 18.774 20 18.2986 20H5.70141ZM8.34353 10.3529C8.14353 10.3529 7.97592 10.4206 7.84071 10.556C7.70565 10.6912 7.63812 10.8588 7.63812 11.0588V15.7647C7.63812 15.9647 7.7058 16.1323 7.84118 16.2675C7.97639 16.4029 8.14408 16.4706 8.34424 16.4706C8.54424 16.4706 8.71184 16.4029 8.84706 16.2675C8.98212 16.1323 9.04965 15.9647 9.04965 15.7647V11.0588C9.04965 10.8588 8.98204 10.6912 8.84682 10.556C8.71145 10.4206 8.54369 10.3529 8.34353 10.3529ZM11.9998 7.52941C11.7996 7.52941 11.632 7.5971 11.4969 7.73247C11.3617 7.86769 11.2941 8.03529 11.2941 8.23529V15.7647C11.2941 15.9647 11.3618 16.1323 11.4972 16.2675C11.6325 16.4029 11.8002 16.4706 12.0002 16.4706C12.2004 16.4706 12.368 16.4029 12.5031 16.2675C12.6383 16.1323 12.7059 15.9647 12.7059 15.7647V8.23529C12.7059 8.03529 12.6382 7.86769 12.5028 7.73247C12.3675 7.5971 12.1998 7.52941 11.9998 7.52941ZM15.6558 13.1765C15.4558 13.1765 15.2882 13.2442 15.1529 13.3795C15.0179 13.5147 14.9504 13.6824 14.9504 13.8824V15.7647C14.9504 15.9647 15.018 16.1323 15.1532 16.2675C15.2885 16.4029 15.4563 16.4706 15.6565 16.4706C15.8565 16.4706 16.0241 16.4029 16.1593 16.2675C16.2944 16.1323 16.3619 15.9647 16.3619 15.7647V13.8824C16.3619 13.6824 16.2942 13.5147 16.1588 13.3795C16.0236 13.2442 15.8559 13.1765 15.6558 13.1765Z" fill="#6D7882"/>
</svg>
