<svg width="26" height="26" viewBox="0 0 26 26" fill="none" xmlns="http://www.w3.org/2000/svg">
<path fill-rule="evenodd" clip-rule="evenodd" d="M4.33301 8.66675C4.33301 5.97436 6.51562 3.79175 9.20801 3.79175H20.0413C20.9388 3.79175 21.6663 4.51929 21.6663 5.41675V21.6667C21.6663 22.2651 21.1813 22.7501 20.583 22.7501H8.12467C6.2145 22.7501 4.63424 21.3376 4.37141 19.5001H4.33301V8.66675ZM20.0413 16.7917H8.12467C6.92806 16.7917 5.95801 17.7618 5.95801 18.9584C5.95801 20.155 6.92806 21.1251 8.12467 21.1251H20.0413V16.7917ZM8.93717 8.66675C8.93717 8.21802 9.30094 7.85425 9.74967 7.85425H17.333C17.7817 7.85425 18.1455 8.21802 18.1455 8.66675C18.1455 9.11548 17.7817 9.47925 17.333 9.47925H9.74967C9.30094 9.47925 8.93717 9.11548 8.93717 8.66675ZM9.74967 11.1042C9.30094 11.1042 8.93717 11.468 8.93717 11.9167C8.93717 12.3655 9.30094 12.7292 9.74967 12.7292H15.1663C15.6151 12.7292 15.9788 12.3655 15.9788 11.9167C15.9788 11.468 15.6151 11.1042 15.1663 11.1042H9.74967Z" fill="#6D7882"/>
</svg>
