<svg width="24" height="24" viewBox="0 0 24 24" fill="none" xmlns="http://www.w3.org/2000/svg">
<path d="M5.70141 21C5.22596 21 4.82353 20.8352 4.49412 20.5056C4.16471 20.1761 4 19.7734 4 19.2977V6.69412C4 6.21842 4.16471 5.81579 4.49412 5.48621C4.82353 5.15663 5.22596 4.99184 5.70141 4.99184H7.00447V3.72413C7.00447 3.51775 7.07357 3.34543 7.21176 3.20716C7.34996 3.06905 7.5222 3 7.72847 3C7.9349 3 8.10714 3.06905 8.24518 3.20716C8.38337 3.34543 8.45247 3.51775 8.45247 3.72413V4.99184H15.5838V3.70624C15.5838 3.50583 15.6513 3.33798 15.7864 3.20269C15.9216 3.06756 16.0893 3 16.2896 3C16.49 3 16.6576 3.06756 16.7927 3.20269C16.9279 3.33798 16.9955 3.50583 16.9955 3.70624V4.99184H18.2986C18.774 4.99184 19.1765 5.15663 19.5059 5.48621C19.8353 5.81579 20 6.21842 20 6.69412V19.2977C20 19.7734 19.8353 20.1761 19.5059 20.5056C19.1765 20.8352 18.774 21 18.2986 21H5.70141ZM5.70141 19.5875H18.2986C18.3711 19.5875 18.4374 19.5573 18.4976 19.4969C18.558 19.4366 18.5882 19.3702 18.5882 19.2977V10.4607H5.41176V19.2977C5.41176 19.3702 5.44196 19.4366 5.50235 19.4969C5.56259 19.5573 5.62894 19.5875 5.70141 19.5875ZM5.41176 9.04826H18.5882V6.69412C18.5882 6.62161 18.558 6.55522 18.4976 6.49496C18.4374 6.43453 18.3711 6.40432 18.2986 6.40432H5.70141C5.62894 6.40432 5.56259 6.43453 5.50235 6.49496C5.44196 6.55522 5.41176 6.62161 5.41176 6.69412V9.04826Z" fill="#6D7882"/>
</svg>
