<svg width="24" height="24" viewBox="0 0 24 24" fill="none" xmlns="http://www.w3.org/2000/svg">
<path d="M4 19.3579V9.67354C4 9.36026 4.06827 9.0635 4.2048 8.78324C4.34151 8.50281 4.53031 8.27191 4.7712 8.09054L10.8432 3.39575C11.1801 3.13192 11.5652 3 11.9984 3C12.4316 3 12.8178 3.13192 13.1568 3.39575L19.2288 8.09054C19.4697 8.27191 19.6585 8.50281 19.7952 8.78324C19.9317 9.0635 20 9.36026 20 9.67354V19.3579C20 19.8056 19.8424 20.1913 19.5272 20.5148C19.212 20.8383 18.8363 21 18.4 21H14.9949C14.7217 21 14.4927 20.9051 14.308 20.7154C14.1231 20.5258 14.0307 20.2908 14.0307 20.0104V14.6631C14.0307 14.3828 13.9383 14.1478 13.7536 13.9581C13.5689 13.7685 13.3399 13.6737 13.0667 13.6737H10.9333C10.6601 13.6737 10.4311 13.7685 10.2464 13.9581C10.0617 14.1478 9.96933 14.3828 9.96933 14.6631V20.0104C9.96933 20.2908 9.87689 20.5258 9.692 20.7154C9.50729 20.9051 9.27831 21 9.00507 21H5.6C5.16373 21 4.788 20.8383 4.4728 20.5148C4.1576 20.1913 4 19.8056 4 19.3579Z" fill="#6D7882"/>
</svg>
