<svg width="28" height="28" viewBox="0 0 28 28" fill="none" xmlns="http://www.w3.org/2000/svg">
<path d="M24.4358 14.2632C24.4256 13.9524 24.1688 13.7084 23.8578 13.7084H4.1432C3.8322 13.7084 3.57534 13.9524 3.56512 14.2632C3.49582 16.3721 3.62393 18.4854 3.94912 20.5752C4.19529 22.1573 5.48056 23.3724 7.07393 23.5295L8.46577 23.6668C12.1467 24.0298 15.8543 24.0298 19.5352 23.6668L20.927 23.5295C22.5204 23.3724 23.8057 22.1573 24.0519 20.5752C24.377 18.4854 24.5051 16.3721 24.4358 14.2632Z" fill="#B3B6BC"/>
<path d="M9.04046 4.66663C9.04046 4.18338 8.64871 3.79163 8.16546 3.79163C7.68221 3.79163 7.29046 4.18338 7.29046 4.66663V6.78579C5.54855 7.03206 4.1724 8.40982 3.93945 10.1673L3.83847 10.929C3.82135 11.0582 3.80498 11.1874 3.78936 11.3167C3.74792 11.6597 4.01813 11.9583 4.36359 11.9583H23.6339C23.9794 11.9583 24.2496 11.6597 24.2082 11.3167C24.1925 11.1874 24.1762 11.0582 24.1591 10.929L24.0581 10.1673C23.8251 8.40984 22.449 7.03209 20.7071 6.7858V4.66663C20.7071 4.18338 20.3154 3.79163 19.8321 3.79163C19.3489 3.79163 18.9571 4.18338 18.9571 4.66663V6.6122C15.6581 6.3184 12.3395 6.31839 9.04046 6.61219V4.66663Z" fill="#525866"/>
</svg>
