<svg width="24" height="24" viewBox="0 0 24 24" fill="none" xmlns="http://www.w3.org/2000/svg">
<path d="M19.6394 4.92721C17.7538 3.62471 15.0524 2.25 12 2.25C8.94756 2.25 6.24625 3.62471 4.36061 4.92721C3.40826 5.58503 2.63887 6.24179 2.10629 6.73514C1.84643 6.97586 1.42164 7.41189 1.26681 7.57083L1.25503 7.58292C0.886606 7.99436 0.921484 8.62657 1.33293 8.99499C1.7441 9.36315 2.37572 9.32857 2.74424 8.91792L2.74502 8.91706C2.86756 8.7913 3.22619 8.42399 3.46543 8.20236C3.94491 7.75821 4.63999 7.16497 5.49729 6.57279C7.23093 5.37529 9.52962 4.25 12 4.25C14.4704 4.25 16.7691 5.37529 18.5027 6.57279C19.36 7.16497 20.0551 7.75821 20.5346 8.20236C20.7738 8.42399 21.1332 8.79216 21.2558 8.91792C21.6243 9.32857 22.2559 9.36315 22.6671 8.99499C23.0785 8.62657 23.1134 7.99436 22.745 7.58292L22.7331 7.57071C22.5781 7.41168 22.1535 6.9758 21.8937 6.73514C21.3611 6.24179 20.5917 5.58503 19.6394 4.92721Z" fill="#525866"/>
<path opacity="0.4" d="M5.52031 8.71298C7.22596 7.38141 9.42944 6.25 12 6.25C14.5705 6.25 16.774 7.38141 18.4797 8.71298C20.1869 10.0458 21.5019 11.694 22.2078 12.6837C22.4609 13.0358 22.75 13.4378 22.75 14C22.75 14.5622 22.461 14.9642 22.2078 15.3163C21.5019 16.306 20.1869 17.9542 18.4797 19.287C16.774 20.6186 14.5705 21.75 12 21.75C9.42944 21.75 7.22596 20.6186 5.52031 19.287C3.81314 17.9542 2.49805 16.306 1.7922 15.3163C1.53904 14.9642 1.25 14.5622 1.25 14C1.25 13.4378 1.53904 13.0358 1.7922 12.6837C2.49805 11.694 3.81313 10.0458 5.52031 8.71298Z" fill="#525866"/>
<path fill-rule="evenodd" clip-rule="evenodd" d="M12 16C10.8954 16 10 15.1046 10 14C10 12.8954 10.8954 12 12 12C13.1046 12 14 12.8954 14 14C14 15.1046 13.1046 16 12 16ZM8 14C8 16.2091 9.79087 18 12 18C14.2091 18 16 16.2091 16 14C16 11.7909 14.2091 10 12 10C9.79087 10 8 11.7909 8 14Z" fill="#525866"/>
</svg>
