<svg width="28" height="28" viewBox="0 0 28 28" fill="none" xmlns="http://www.w3.org/2000/svg">
<path fill-rule="evenodd" clip-rule="evenodd" d="M4.60547 15.1666C4.60547 14.2001 5.38897 13.4166 6.35547 13.4166H21.5221C22.4886 13.4166 23.2721 14.2001 23.2721 15.1666V19.8333C23.2721 20.7998 22.4886 21.5833 21.5221 21.5833H14.8752V23.625H22.1669C22.6501 23.625 23.0419 24.0167 23.0419 24.5C23.0419 24.9832 22.6501 25.375 22.1669 25.375H5.83355C5.3503 25.375 4.95855 24.9832 4.95855 24.5C4.95855 24.0167 5.3503 23.625 5.83355 23.625H13.1252V21.5833H6.35547C5.38897 21.5833 4.60547 20.7998 4.60547 19.8333V15.1666ZM7.00022 17.5C7.00022 16.8556 7.52255 16.3333 8.16688 16.3333C8.81122 16.3333 9.33355 16.8556 9.33355 17.5C9.33355 18.1443 8.81122 18.6666 8.16688 18.6666C7.52255 18.6666 7.00022 18.1443 7.00022 17.5ZM10.5002 17.5C10.5002 16.8556 11.0226 16.3333 11.6669 16.3333C12.3112 16.3333 12.8336 16.8556 12.8336 17.5C12.8336 18.1443 12.3112 18.6666 11.6669 18.6666C11.0226 18.6666 10.5002 18.1443 10.5002 17.5Z" fill="#9FA2A9"/>
<path fill-rule="evenodd" clip-rule="evenodd" d="M4.60547 5.83337C4.60547 4.86688 5.38897 4.08337 6.35547 4.08337H21.5221C22.4886 4.08337 23.2721 4.86688 23.2721 5.83337V10.5C23.2721 11.4665 22.4886 12.25 21.5221 12.25H6.35547C5.38897 12.25 4.60547 11.4665 4.60547 10.5V5.83337ZM7.00022 8.16671C7.00022 7.52238 7.52255 7.00004 8.16688 7.00004C8.81122 7.00004 9.33355 7.52238 9.33355 8.16671C9.33355 8.81104 8.81122 9.33337 8.16688 9.33337C7.52255 9.33337 7.00022 8.81104 7.00022 8.16671ZM11.6669 7.00004C11.0226 7.00004 10.5002 7.52238 10.5002 8.16671C10.5002 8.81104 11.0226 9.33337 11.6669 9.33337C12.3112 9.33337 12.8336 8.81104 12.8336 8.16671C12.8336 7.52238 12.3112 7.00004 11.6669 7.00004Z" fill="#525866"/>
</svg>
