<svg width="24" height="24" viewBox="0 0 24 24" fill="none" xmlns="http://www.w3.org/2000/svg">
<path d="M17.3179 19.7441L15.9989 18.4072C15.9163 18.3235 15.8194 18.2801 15.7083 18.277C15.5971 18.274 15.4972 18.3174 15.4084 18.4072C15.3199 18.4971 15.2756 18.5968 15.2756 18.7063C15.2756 18.8159 15.3199 18.9156 15.4084 19.0054L17.1374 20.758C17.2261 20.8479 17.3201 20.9114 17.4192 20.9483C17.5184 20.9853 17.6247 21.0038 17.738 21.0038C17.8514 21.0038 17.9573 20.9853 18.0556 20.9483C18.154 20.9114 18.2476 20.8479 18.3363 20.758L20.0652 19.0054C20.1478 18.9217 20.1906 18.8236 20.1936 18.7111C20.1966 18.5984 20.1538 18.4971 20.0652 18.4072C19.9765 18.3174 19.8781 18.2725 19.7701 18.2725C19.662 18.2725 19.5625 18.3184 19.4717 18.4103L18.1558 19.7441V16.4165C18.1558 16.3032 18.1139 16.204 18.0301 16.119C17.9464 16.0342 17.8486 15.9918 17.7368 15.9918C17.6251 15.9918 17.5273 16.0342 17.4436 16.119C17.3598 16.204 17.3179 16.3032 17.3179 16.4165V19.7441ZM12.0507 12.6435C12.2075 12.6435 12.3575 12.622 12.5007 12.5792C12.6439 12.5361 12.78 12.4788 12.9088 12.4073L18.0083 9.42291C18.1753 9.32736 18.2827 9.181 18.3304 8.98382C18.3781 8.78664 18.3544 8.60354 18.2593 8.43453C18.1644 8.26552 18.0221 8.15685 17.8323 8.10851C17.6423 8.06018 17.4642 8.08467 17.2977 8.18198L12.0526 11.2494L6.80753 8.18198C6.64111 8.08467 6.46292 8.06018 6.27297 8.10851C6.08318 8.15685 5.94084 8.26552 5.84595 8.43453C5.75089 8.60354 5.72997 8.78664 5.78318 8.98382C5.83655 9.181 5.94597 9.32736 6.11145 9.42291L11.1964 12.4073C11.3245 12.4788 11.4597 12.5361 11.6022 12.5792C11.7446 12.622 11.8941 12.6435 12.0507 12.6435ZM4 15.7183V8.43501C4 8.11988 4.07492 7.83123 4.22476 7.56907C4.37461 7.30691 4.58516 7.09573 4.85642 6.93552L11.1964 3.23647C11.3422 3.15645 11.4823 3.09707 11.6168 3.05834C11.7514 3.01945 11.8965 3 12.0522 3C12.208 3 12.3572 3.01945 12.4998 3.05834C12.6425 3.09707 12.7789 3.15645 12.9088 3.23647L19.2488 6.93552C19.5201 7.09573 19.7307 7.30691 19.8805 7.56907C20.0303 7.83123 20.1053 8.11988 20.1053 8.43501V11.6815C20.1053 11.9389 20.002 12.1414 19.7955 12.2891C19.5889 12.4369 19.3606 12.4799 19.1105 12.4183C18.8967 12.3568 18.6739 12.3138 18.4419 12.2891C18.21 12.2645 17.9749 12.2522 17.7368 12.2522C15.9858 12.2522 14.4913 12.8795 13.2534 14.1341C12.0157 15.3889 11.3968 16.9037 11.3968 18.6787V19.1168C11.3968 19.2521 11.4095 19.3767 11.4349 19.4906C11.4859 19.8469 11.3791 20.1262 11.1145 20.3287C10.8497 20.5312 10.5746 20.5537 10.2891 20.3962L4.85642 17.2178C4.58516 17.0576 4.37461 16.8464 4.22476 16.5843C4.07492 16.3221 4 16.0335 4 15.7183ZM17.7368 23C16.5539 23 15.5476 22.5796 14.7181 21.7387C13.8885 20.8978 13.4737 19.8778 13.4737 18.6787C13.4737 17.4796 13.8885 16.4596 14.7181 15.6187C15.5476 14.7778 16.5539 14.3574 17.7368 14.3574C18.9198 14.3574 19.9261 14.7778 20.7556 15.6187C21.5852 16.4596 22 17.4796 22 18.6787C22 19.8778 21.5852 20.8978 20.7556 21.7387C19.9261 22.5796 18.9198 23 17.7368 23Z" fill="#6D7882"/>
</svg>
