<svg width="18" height="18" viewBox="0 0 18 18" fill="none" xmlns="http://www.w3.org/2000/svg">
<mask id="mask0_4181_52953" style="mask-type:alpha" maskUnits="userSpaceOnUse" x="0" y="0" width="18" height="18">
<rect width="18" height="18" fill="#D9D9D9"/>
</mask>
<g mask="url(#mask0_4181_52953)">
<path d="M3.1875 13.125C3.02812 13.125 2.89456 13.0711 2.78681 12.9632C2.67894 12.8553 2.625 12.7217 2.625 12.5623C2.625 12.4028 2.67894 12.2692 2.78681 12.1616C2.89456 12.0539 3.02812 12 3.1875 12H6.09375C6.25312 12 6.38669 12.0539 6.49444 12.1618C6.60231 12.2697 6.65625 12.4033 6.65625 12.5627C6.65625 12.7222 6.60231 12.8558 6.49444 12.9634C6.38669 13.0711 6.25312 13.125 6.09375 13.125H3.1875ZM3.1875 9.5625C3.02812 9.5625 2.89456 9.50856 2.78681 9.40069C2.67894 9.29281 2.625 9.15919 2.625 8.99981C2.625 8.84031 2.67894 8.70675 2.78681 8.59912C2.89456 8.49137 3.02812 8.4375 3.1875 8.4375H10.4496C10.6089 8.4375 10.7425 8.49144 10.8503 8.59931C10.9581 8.70719 11.0121 8.84081 11.0121 9.00019C11.0121 9.15969 10.9581 9.29325 10.8503 9.40088C10.7425 9.50863 10.6089 9.5625 10.4496 9.5625H3.1875ZM3.1875 6C3.02812 6 2.89456 5.94606 2.78681 5.83819C2.67894 5.73031 2.625 5.59669 2.625 5.43731C2.625 5.27781 2.67894 5.14425 2.78681 5.03662C2.89456 4.92887 3.02812 4.875 3.1875 4.875H14.8125C14.9719 4.875 15.1054 4.92894 15.2132 5.03681C15.3211 5.14469 15.375 5.27831 15.375 5.43769C15.375 5.59719 15.3211 5.73075 15.2132 5.83838C15.1054 5.94613 14.9719 6 14.8125 6H3.1875Z" fill="#6D7882"/>
</g>
</svg>
