<svg width="24" height="24" viewBox="0 0 24 24" fill="none" xmlns="http://www.w3.org/2000/svg">
<path d="M5.70141 20C5.22596 20 4.82353 19.8353 4.49412 19.5059C4.16471 19.1765 4 18.774 4 18.2986V5.70141C4 5.22596 4.16471 4.82353 4.49412 4.49412C4.82353 4.16471 5.22596 4 5.70141 4H18.2986C18.774 4 19.1765 4.16471 19.5059 4.49412C19.8353 4.82353 20 5.22596 20 5.70141V18.2986C20 18.774 19.8353 19.1765 19.5059 19.5059C19.1765 19.8353 18.774 20 18.2986 20H5.70141ZM7.90965 16.4706H16.1628C16.333 16.4706 16.4591 16.3933 16.5412 16.2388C16.6232 16.0845 16.6105 15.9349 16.5031 15.7901L14.2588 12.7838C14.1707 12.6704 14.0573 12.6136 13.9186 12.6136C13.7798 12.6136 13.6664 12.6704 13.5784 12.7838L11.276 15.7828L9.73388 13.8064C9.64588 13.6989 9.53396 13.6452 9.39812 13.6452C9.26243 13.6452 9.15051 13.702 9.06235 13.8155L7.57835 15.7901C7.46494 15.9349 7.44925 16.0845 7.53129 16.2388C7.61333 16.3933 7.73945 16.4706 7.90965 16.4706Z" fill="#6D7882"/>
</svg>
