<svg width="24" height="24" viewBox="0 0 24 24" fill="none" xmlns="http://www.w3.org/2000/svg">
<path d="M11.1304 14.0688H12.4692C12.5959 14.0688 12.7056 14.0145 12.7985 13.9057C12.8913 13.7969 12.9222 13.6774 12.8911 13.5469L12.4478 11.0296C12.7408 10.9 12.9768 10.6962 13.1557 10.4184C13.3346 10.1406 13.424 9.83347 13.424 9.49708C13.424 9.03638 13.2649 8.642 12.9466 8.31396C12.6284 7.98607 12.2458 7.82213 11.7989 7.82213C11.352 7.82213 10.9697 7.98607 10.652 8.31396C10.3344 8.642 10.1756 9.03638 10.1756 9.49708C10.1756 9.83347 10.265 10.1406 10.4439 10.4184C10.6228 10.6962 10.8588 10.9 11.1518 11.0296L10.7085 13.5469C10.6774 13.6774 10.7083 13.7969 10.8011 13.9057C10.894 14.0145 11.0037 14.0688 11.1304 14.0688ZM11.7998 20.4414C11.7029 20.4414 11.6078 20.4334 11.5144 20.4173C11.4211 20.4013 11.3307 20.3772 11.2433 20.3452C9.27506 19.6233 7.70908 18.3434 6.54537 16.5056C5.38166 14.6676 4.7998 12.6843 4.7998 10.5558V6.22105C4.7998 5.85547 4.90177 5.52638 5.1057 5.23379C5.30948 4.94136 5.57307 4.72937 5.89647 4.59784L11.2092 2.55257C11.4091 2.47846 11.606 2.44141 11.7998 2.44141C11.9936 2.44141 12.1905 2.47846 12.3904 2.55257L17.7031 4.59784C18.0265 4.72937 18.2901 4.94136 18.4939 5.23379C18.6978 5.52638 18.7998 5.85547 18.7998 6.22105V10.5558C18.7998 12.6843 18.2179 14.6676 17.0542 16.5056C15.8905 18.3434 14.3245 19.6233 12.3563 20.3452C12.2689 20.3772 12.1785 20.4013 12.0852 20.4173C11.9918 20.4334 11.8967 20.4414 11.7998 20.4414Z" fill="#6D7882"/>
<path d="M11.3306 14.6274H12.6694C12.7961 14.6274 12.9058 14.5731 12.9987 14.4643C13.0915 14.3555 13.1224 14.236 13.0913 14.1055L12.648 11.5882C12.941 11.4586 13.177 11.2548 13.3559 10.977C13.5348 10.6992 13.6242 10.3921 13.6242 10.0557C13.6242 9.59497 13.4651 9.2006 13.1468 8.87255C12.8286 8.54467 12.446 8.38073 11.9991 8.38073C11.5522 8.38073 11.1699 8.54467 10.8522 8.87255C10.5346 9.2006 10.3758 9.59497 10.3758 10.0557C10.3758 10.3921 10.4652 10.6992 10.6441 10.977C10.823 11.2548 11.059 11.4586 11.352 11.5882L10.9087 14.1055C10.8776 14.236 10.9085 14.3555 11.0013 14.4643C11.0942 14.5731 11.2039 14.6274 11.3306 14.6274ZM12 21C11.9031 21 11.808 20.992 11.7146 20.9759C11.6213 20.9599 11.5309 20.9358 11.4435 20.9038C9.47526 20.1819 7.90928 18.902 6.74557 17.0642C5.58186 15.2262 5 13.2429 5 11.1144V6.77965C5 6.41406 5.10197 6.08498 5.3059 5.79239C5.50968 5.49995 5.77327 5.28797 6.09667 5.15643L11.4094 3.11117C11.6093 3.03706 11.8062 3 12 3C12.1938 3 12.3907 3.03706 12.5906 3.11117L17.9033 5.15643C18.2267 5.28797 18.4903 5.49995 18.6941 5.79239C18.898 6.08498 19 6.41406 19 6.77965V11.1144C19 13.2429 18.4181 15.2262 17.2544 17.0642C16.0907 18.902 14.5247 20.1819 12.5565 20.9038C12.4691 20.9358 12.3787 20.9599 12.2854 20.9759C12.192 20.992 12.0969 21 12 21Z" fill="#6D7882"/>
</svg>
