<svg width="24" height="24" viewBox="0 0 24 24" fill="none" xmlns="http://www.w3.org/2000/svg">
<path d="M11.2941 21V12.4903L4 8.18751V15.7184C4 16.0335 4.07482 16.3229 4.22447 16.5865C4.37412 16.8499 4.5829 17.0604 4.85082 17.2179L11.2941 21ZM12.7059 21L19.1492 17.2179C19.4171 17.0604 19.6259 16.8499 19.7755 16.5865C19.9252 16.3229 20 16.0335 20 15.7184V8.18751L12.7059 12.4903V21ZM16.3021 8.71015L19.2325 6.9797L12.8506 3.23647C12.5828 3.07883 12.2993 3 12 3C11.7007 3 11.4172 3.07883 11.1494 3.23647L9.08235 4.4462L16.3021 8.71015ZM12 11.2494L14.8906 9.55233L7.66706 5.28262L4.76212 6.98522L12 11.2494Z" fill="#6D7882"/>
</svg>
