<svg width="24" height="24" viewBox="0 0 24 24" fill="none" xmlns="http://www.w3.org/2000/svg">
<path d="M16.1447 20C15.9038 20 15.7017 19.9184 15.5386 19.7553C15.3756 19.5923 15.2941 19.3903 15.2941 19.1492V10.4073C15.2941 9.93937 15.1275 9.53882 14.7944 9.20565C14.4612 8.87247 14.0606 8.70588 13.5927 8.70588H10.4976C10.2567 8.70588 10.0547 8.62439 9.89153 8.46141C9.72855 8.29827 9.64706 8.09623 9.64706 7.85529V4.85082C9.64706 4.60972 9.72855 4.40769 9.89153 4.24471C10.0547 4.08157 10.2567 4 10.4976 4H19.1492C19.3903 4 19.5923 4.08157 19.7553 4.24471C19.9184 4.40769 20 4.60972 20 4.85082V19.1492C20 19.3903 19.9184 19.5923 19.7553 19.7553C19.5923 19.9184 19.3903 20 19.1492 20H16.1447ZM10.4976 20C10.2567 20 10.0547 19.9184 9.89153 19.7553C9.72855 19.5923 9.64706 19.3903 9.64706 19.1492V10.9682C9.64706 10.7273 9.72855 10.5253 9.89153 10.3621C10.0547 10.1991 10.2567 10.1176 10.4976 10.1176H13.0318C13.2727 10.1176 13.4747 10.1991 13.6379 10.3621C13.8009 10.5253 13.8824 10.7273 13.8824 10.9682V19.1492C13.8824 19.3903 13.8009 19.5923 13.6379 19.7553C13.4747 19.9184 13.2727 20 13.0318 20H10.4976ZM4.85082 20C4.60973 20 4.40769 19.9184 4.24471 19.7553C4.08157 19.5923 4 19.3903 4 19.1492V10.9682C4 10.7273 4.08157 10.5253 4.24471 10.3621C4.40769 10.1991 4.60973 10.1176 4.85082 10.1176H7.38471C7.62565 10.1176 7.82769 10.1991 7.99082 10.3621C8.1538 10.5253 8.23529 10.7273 8.23529 10.9682V19.1492C8.23529 19.3903 8.1538 19.5923 7.99082 19.7553C7.82769 19.9184 7.62565 20 7.38471 20H4.85082Z" fill="#6D7882"/>
</svg>
