<svg width="24" height="24" viewBox="0 0 24 24" fill="none" xmlns="http://www.w3.org/2000/svg">
<path d="M12.0045 11.0626C14.2296 11.0626 16.1185 10.718 17.6712 10.0286C19.2237 9.3393 20 8.5069 20 7.53144C20 6.55582 19.2237 5.72334 17.6712 5.034C16.1185 4.34467 14.2296 4 12.0045 4C9.77952 4 7.8892 4.34467 6.33352 5.034C4.77784 5.72334 4 6.55582 4 7.53144C4 8.5069 4.77784 9.3393 6.33352 10.0286C7.8892 10.718 9.77952 11.0626 12.0045 11.0626ZM11.9955 12.9642C12.6987 12.9642 13.4886 12.9006 14.3653 12.7733C15.242 12.6458 16.0774 12.4481 16.8716 12.18C17.6657 11.9121 18.3554 11.5705 18.9408 11.1552C19.5264 10.7399 19.8794 10.2442 20 9.66819V12.24C19.8794 12.8159 19.5264 13.3115 18.9408 13.7268C18.3554 14.1421 17.6657 14.4837 16.8716 14.7518C16.0774 15.0197 15.242 15.2174 14.3653 15.3449C13.4886 15.4721 12.6987 15.5358 11.9955 15.5358C11.2924 15.5358 10.5025 15.4721 9.6258 15.3449C8.74911 15.2174 7.91522 15.0197 7.12414 14.7518C6.33305 14.4837 5.64473 14.1421 5.05917 13.7268C4.47362 13.3115 4.12056 12.8159 4 12.24V9.66819C4.12056 10.2442 4.47362 10.7399 5.05917 11.1552C5.64473 11.5705 6.33305 11.9121 7.12414 12.18C7.91522 12.4481 8.74911 12.6458 9.6258 12.7733C10.5025 12.9006 11.2924 12.9642 11.9955 12.9642ZM11.9955 17.4374C12.6987 17.4374 13.4886 17.3737 14.3653 17.2464C15.242 17.119 16.0774 16.9212 16.8716 16.6531C17.6657 16.3852 18.3554 16.0436 18.9408 15.6283C19.5264 15.2129 19.8794 14.7172 20 14.1413V16.704C19.8794 17.2799 19.5264 17.7754 18.9408 18.1907C18.3554 18.606 17.6657 18.9477 16.8716 19.2158C16.0774 19.4839 15.242 19.6815 14.3653 19.8088C13.4886 19.9363 12.6987 20 11.9955 20C11.2924 20 10.5025 19.9363 9.6258 19.8088C8.74911 19.6815 7.91522 19.4839 7.12414 19.2158C6.33305 18.9477 5.64473 18.606 5.05917 18.1907C4.47362 17.7754 4.12056 17.2799 4 16.704V14.1413C4.12056 14.7172 4.47362 15.2129 5.05917 15.6283C5.64473 16.0436 6.33305 16.3852 7.12414 16.6531C7.91522 16.9212 8.74911 17.119 9.6258 17.2464C10.5025 17.3737 11.2924 17.4374 11.9955 17.4374Z" fill="#6D7882"/>
</svg>
