<svg width="26" height="26" viewBox="0 0 26 26" fill="none" xmlns="http://www.w3.org/2000/svg">
<path d="M14.1258 3.88046C13.4763 3.54151 12.5842 3.53642 11.9303 3.87417C9.13675 5.31689 6.60535 6.96987 4.38888 8.80136C4.09332 9.04559 3.89773 9.38741 3.90108 9.77812C3.90441 10.1675 4.10445 10.5055 4.39904 10.7464C6.59766 12.5441 9.13192 14.199 11.8747 15.6305C12.5241 15.9695 13.4162 15.9746 14.0701 15.6368C16.8637 14.1941 19.3951 12.5411 21.6115 10.7096C21.9071 10.4654 22.1027 10.1236 22.0993 9.73287C22.096 9.3435 21.896 9.00548 21.6014 8.76461C19.4028 6.96688 16.8685 5.31195 14.1258 3.88046Z" fill="#6D7882"/>
<path d="M22.7047 14.8758C23.0854 14.6381 23.2013 14.1369 22.9637 13.7563C22.726 13.3756 22.2248 13.2597 21.8442 13.4974L15.228 17.628C14.6386 17.9959 13.8379 18.2011 13 18.2011C12.1621 18.2012 11.3613 17.9961 10.7718 17.6282L4.22814 13.5443C3.84746 13.3068 3.34626 13.4228 3.10868 13.8034C2.8711 14.1841 2.98711 14.6853 3.36778 14.9229L9.91148 19.0068C10.8094 19.5672 11.9233 19.8262 13.0001 19.8261C14.0769 19.8261 15.1908 19.5669 16.0886 19.0064L22.7047 14.8758Z" fill="#6D7882"/>
<path d="M22.7048 18.9433C23.0854 18.7057 23.2013 18.2044 22.9636 17.8238C22.7259 17.4432 22.2247 17.3273 21.8441 17.565L16.1144 21.1431C15.2772 21.666 14.1572 21.9486 13 21.9487C11.8428 21.9487 10.7227 21.6662 9.88524 21.1435L4.22822 17.612C3.84757 17.3744 3.34636 17.4903 3.10873 17.871C2.87111 18.2516 2.98705 18.7528 3.3677 18.9905L9.02472 22.5219C10.1707 23.2373 11.604 23.5738 13.0001 23.5737C14.3962 23.5736 15.8294 23.237 16.9752 22.5214L22.7048 18.9433Z" fill="#6D7882"/>
</svg>
