<svg width="24" height="24" viewBox="0 0 24 24" fill="none" xmlns="http://www.w3.org/2000/svg">
<path d="M12.6911 12.8225V9.15703C12.6911 8.95934 12.6251 8.79385 12.4931 8.66056C12.3613 8.52711 12.1977 8.46039 12.0022 8.46039C11.8068 8.46039 11.6431 8.52711 11.5114 8.66056C11.3794 8.79385 11.3134 8.95934 11.3134 9.15703V13.0369C11.3134 13.1488 11.3335 13.2554 11.3736 13.3566C11.4135 13.4577 11.4765 13.5518 11.5626 13.6388L14.2489 16.3557C14.3759 16.4843 14.5358 16.5501 14.7283 16.5531C14.9209 16.556 15.0837 16.4902 15.2167 16.3557C15.3497 16.2212 15.4162 16.058 15.4162 15.8662C15.4162 15.6745 15.3497 15.5114 15.2167 15.3769L12.6911 12.8225ZM12.0022 21C10.919 21 9.90406 20.7928 8.95749 20.3784C8.01076 19.9639 7.18534 19.4007 6.48123 18.6885C5.77712 17.9764 5.22018 17.1416 4.81041 16.1841C4.40065 15.2267 4.19577 14.2003 4.19577 13.1047C4.19577 12.0091 4.40065 10.9826 4.81041 10.0253C5.22018 9.06779 5.77712 8.23297 6.48123 7.52084C7.18534 6.80872 8.01076 6.24544 8.95749 5.83102C9.90406 5.41659 10.919 5.20938 12.0022 5.20938C13.0855 5.20938 14.1004 5.41659 15.047 5.83102C15.9937 6.24544 16.8191 6.80872 17.5233 7.52084C18.2274 8.23297 18.7843 9.06779 19.1941 10.0253C19.6038 10.9826 19.8087 12.0091 19.8087 13.1047C19.8087 14.2003 19.6038 15.2267 19.1941 16.1841C18.7843 17.1416 18.2274 17.9764 17.5233 18.6885C16.8191 19.4007 15.9937 19.9639 15.047 20.3784C14.1004 20.7928 13.0855 21 12.0022 21ZM3.19975 7.7923C3.06658 7.65777 3 7.49461 3 7.3028C3 7.11114 3.06658 6.94805 3.19975 6.81352L5.78186 4.20203C5.90906 4.07338 6.06886 4.00759 6.26127 4.00464C6.45383 4.00155 6.61662 4.06734 6.74963 4.20203C6.88265 4.33656 6.94916 4.49965 6.94916 4.6913C6.94916 4.88311 6.88265 5.04628 6.74963 5.18081L4.16753 7.7923C4.04033 7.92095 3.88052 7.98675 3.68812 7.98969C3.49556 7.99263 3.33277 7.92683 3.19975 7.7923ZM20.8047 7.7923C20.6717 7.92683 20.5105 7.9941 20.321 7.9941C20.1313 7.9941 19.97 7.92683 19.837 7.7923L17.2549 5.18081C17.1277 5.05217 17.0626 4.89055 17.0597 4.69595C17.0568 4.5012 17.1218 4.33656 17.2549 4.20203C17.3879 4.06734 17.5492 4 17.7389 4C17.9284 4 18.0896 4.06734 18.2226 4.20203L20.8047 6.81352C20.9319 6.94217 20.997 7.10379 20.9999 7.29838C21.003 7.49313 20.9379 7.65777 20.8047 7.7923ZM12.0022 19.6067C13.7873 19.6067 15.3051 18.9744 16.5555 17.7097C17.8059 16.4451 18.4311 14.9101 18.4311 13.1047C18.4311 11.2993 17.8059 9.76428 16.5555 8.49963C15.3051 7.23499 13.7873 6.60267 12.0022 6.60267C10.2172 6.60267 8.69942 7.23499 7.449 8.49963C6.19859 9.76428 5.57338 11.2993 5.57338 13.1047C5.57338 14.9101 6.19859 16.4451 7.449 17.7097C8.69942 18.9744 10.2172 19.6067 12.0022 19.6067Z" fill="#6D7882"/>
</svg>
