<svg width="24" height="24" viewBox="0 0 24 24" fill="none" xmlns="http://www.w3.org/2000/svg">
<path d="M11.1494 20.7655L4.85082 17.0977C4.5829 16.9416 4.37412 16.7329 4.22447 16.4717C4.07482 16.2103 4 15.9234 4 15.6109V8.3891C4 8.07662 4.07482 7.7897 4.22447 7.52833C4.37412 7.26711 4.5829 7.05843 4.85082 6.90227L11.1494 3.23448C11.4172 3.07816 11.7007 3 12 3C12.2993 3 12.5828 3.07816 12.8506 3.23448L19.1492 6.90227C19.4171 7.05843 19.6259 7.26711 19.7755 7.52833C19.9252 7.7897 20 8.07662 20 8.3891V15.6109C20 15.9234 19.9252 16.2103 19.7755 16.4717C19.6259 16.7329 19.4171 16.9416 19.1492 17.0977L12.8506 20.7655C12.5828 20.9218 12.2993 21 12 21C11.7007 21 11.4172 20.9218 11.1494 20.7655ZM11.2941 12.4102V19.2073L11.8732 19.5441C11.9155 19.5686 11.9578 19.5808 12 19.5808C12.0422 19.5808 12.0845 19.5686 12.1268 19.5441L12.7059 19.2073V12.4102L18.5882 8.96398V8.34887C18.5882 8.31824 18.5807 8.28769 18.5656 8.25722C18.5506 8.22675 18.5279 8.20231 18.4976 8.1839L17.8118 7.78113L12 11.1797L6.18824 7.78113L5.50235 8.1839C5.47208 8.20231 5.44941 8.22675 5.43435 8.25722C5.41929 8.28769 5.41176 8.31824 5.41176 8.34887V8.96398L11.2941 12.4102Z" fill="#6D7882"/>
</svg>
