<svg width="24" height="24" viewBox="0 0 24 24" fill="none" xmlns="http://www.w3.org/2000/svg">
<path d="M15.7736 12.9718L14.6506 11.8488C14.8006 11.0207 14.5643 10.2761 13.9418 9.6151C13.3195 8.95426 12.5557 8.69884 11.6506 8.84884L10.5276 7.72584C10.7532 7.62451 10.9846 7.54851 11.2218 7.49784C11.459 7.44718 11.7186 7.42184 12.0006 7.42184C13.1352 7.42184 14.0984 7.81768 14.8901 8.60934C15.6817 9.40101 16.0776 10.3642 16.0776 11.4988C16.0776 11.7808 16.0522 12.0437 16.0016 12.2873C15.9509 12.5308 15.8749 12.759 15.7736 12.9718ZM18.9543 16.0833L17.8506 15.0488C18.4839 14.5655 19.0464 14.0363 19.5381 13.4613C20.0297 12.8863 20.4506 12.2322 20.8006 11.4988C19.9672 9.81551 18.7714 8.47801 17.2131 7.48634C15.6547 6.49468 13.9172 5.99884 12.0006 5.99884C11.5172 5.99884 11.0422 6.03218 10.5756 6.09884C10.1089 6.16551 9.65056 6.26551 9.20056 6.39884L8.03531 5.23359C8.66731 4.98226 9.31281 4.79701 9.97181 4.67784C10.6308 4.55851 11.3071 4.49884 12.0006 4.49884C14.3441 4.49884 16.4575 5.14501 18.3408 6.43734C20.2241 7.72968 21.5979 9.41684 22.4621 11.4988C22.0916 12.3923 21.6131 13.2263 21.0266 14.0008C20.4399 14.7752 19.7491 15.4693 18.9543 16.0833ZM19.7621 21.8681L15.7161 17.8526C15.2032 18.0424 14.6349 18.1976 14.0111 18.3181C13.3874 18.4386 12.7172 18.4988 12.0006 18.4988C9.65056 18.4988 7.53715 17.8527 5.66031 16.5603C3.78331 15.268 2.40956 13.5808 1.53906 11.4988C1.90823 10.6155 2.38515 9.79151 2.96981 9.02684C3.55448 8.26201 4.19806 7.59884 4.90056 7.03734L2.13131 4.23734L3.18531 3.18359L20.8158 20.8141L19.7621 21.8681ZM5.95456 8.09109C5.42623 8.51159 4.9124 9.01709 4.41306 9.60759C3.91373 10.1979 3.50956 10.8283 3.20056 11.4988C4.0339 13.1822 5.22973 14.5197 6.78806 15.5113C8.3464 16.503 10.0839 16.9988 12.0006 16.9988C12.4557 16.9988 12.909 16.9603 13.3603 16.8833C13.8115 16.8065 14.1941 16.7271 14.5083 16.6451L13.2428 15.3488C13.0723 15.418 12.8749 15.4731 12.6506 15.5141C12.4262 15.5553 12.2096 15.5758 12.0006 15.5758C10.8659 15.5758 9.90273 15.18 9.11106 14.3883C8.3194 13.5967 7.92356 12.6335 7.92356 11.4988C7.92356 11.2963 7.94415 11.0845 7.98531 10.8633C8.02631 10.6422 8.0814 10.4399 8.15056 10.2566L5.95456 8.09109Z" fill="#6D7882"/>
</svg>
